<svg width="16" height="11" viewBox="0 0 16 11" fill="none" xmlns="http://www.w3.org/2000/svg">
<path d="M14.9109 0.907435C14.9099 0.907435 14.9089 0.907435 14.908 0.907435H13.9088V0.565683C13.9142 0.430419 13.8267 0.308854 13.6966 0.27107C13.0029 0.0893668 12.2886 -0.00174245 11.5715 2.52345e-05C10.3926 2.52345e-05 8.78622 0.265178 7.59842 1.47309C6.41945 0.253393 4.80133 2.52345e-05 3.62531 2.52345e-05C2.90821 -0.00174245 2.1939 0.0893668 1.50023 0.27107C1.37018 0.308854 1.28264 0.430419 1.28802 0.565683V0.904489H0.294741C0.13197 0.904489 0 1.0364 0 1.1991V10.6091C0 10.7718 0.13197 10.9037 0.294741 10.9037C0.345363 10.9035 0.3951 10.8903 0.439164 10.8654C0.468638 10.8506 3.41605 9.23911 7.53063 10.2761H7.57484H7.60137C7.62487 10.279 7.6486 10.279 7.6721 10.2761C11.7985 9.23027 14.7459 10.8389 14.7636 10.8654C14.8548 10.918 14.9671 10.918 15.0583 10.8654C15.1489 10.8131 15.2051 10.7166 15.2057 10.612V1.20205C15.2057 1.03935 15.0737 0.907435 14.9109 0.907435ZM0.589482 10.1406V1.49666H1.29391V8.88557C1.29207 9.04827 1.42253 9.18166 1.5853 9.1835C1.60122 9.18369 1.61713 9.18258 1.63286 9.18019C2.24261 9.08713 2.85821 9.03789 3.47499 9.03288C4.32937 9.01808 5.18018 9.14653 5.99208 9.41293C4.15861 9.19131 2.29887 9.4418 0.589482 10.1406ZM3.47499 8.4466C2.9389 8.44781 2.40343 8.48225 1.8716 8.54971V0.798428C2.44546 0.67064 3.03148 0.60542 3.61942 0.603983C4.72175 0.603983 6.24261 0.857351 7.29778 2.04759L7.30662 9.38642C6.69356 8.98574 5.49692 8.4466 3.47499 8.4466ZM7.89611 2.04759C8.95128 0.869135 10.4721 0.603983 11.5745 0.603983C12.1624 0.605714 12.7484 0.670897 13.3223 0.798428V8.54971C12.7934 8.48162 12.2609 8.44619 11.7277 8.44365C9.7176 8.44365 8.51801 8.9828 7.89611 9.38347V2.04759ZM14.6132 10.1406C12.9002 9.43989 11.0362 9.18936 9.19886 9.41293C10.0146 9.14557 10.8695 9.01708 11.7277 9.03288C12.3484 9.03634 12.968 9.08458 13.5817 9.17724C13.7426 9.20166 13.8929 9.09103 13.9173 8.93017C13.9197 8.91445 13.9208 8.89854 13.9206 8.88263V1.49666H14.625L14.6132 10.1406Z" fill="black"/>
</svg>
