<svg width="17" height="17" viewBox="0 0 17 17" fill="none" xmlns="http://www.w3.org/2000/svg">
<path d="M16.7978 0.154486C16.6687 0.0403262 16.4975 -0.0144944 16.3261 0.00329294L5.39751 1.21757C5.08989 1.25161 4.85713 1.51159 4.85716 1.82106V12.641C4.30689 12.3117 3.67701 12.1393 3.03574 12.1425C1.36184 12.1425 0 13.2317 0 14.5711C0 15.9104 1.36184 16.9997 3.0357 16.9997C4.70956 16.9997 6.0714 15.911 6.0714 14.5711V5.40325L15.7857 4.32132V11.4249C15.2352 11.0962 14.6054 10.9245 13.9643 10.9282C12.2904 10.9282 10.9286 12.0175 10.9286 13.3568C10.9286 14.6962 12.2904 15.7854 13.9643 15.7854C15.6381 15.7854 17 14.6968 17 13.3568V0.606818C17 0.434139 16.9265 0.269641 16.7978 0.154486Z" fill="#0C0B0B"/>
</svg>
