<svg width="26" height="18" viewBox="0 0 26 18" fill="none" xmlns="http://www.w3.org/2000/svg">
<path d="M13 0C7.09091 0 2.04455 3.732 0 9C2.04455 14.268 7.09091 18 13 18C18.9091 18 23.9555 14.268 26 9C23.9555 3.732 18.9091 0 13 0ZM13 15C9.73818 15 7.09091 12.312 7.09091 9C7.09091 5.688 9.73818 3 13 3C16.2618 3 18.9091 5.688 18.9091 9C18.9091 12.312 16.2618 15 13 15ZM13 5.4C11.0382 5.4 9.45455 7.008 9.45455 9C9.45455 10.992 11.0382 12.6 13 12.6C14.9618 12.6 16.5455 10.992 16.5455 9C16.5455 7.008 14.9618 5.4 13 5.4Z" fill="black"/>
</svg>
