<svg width="15" height="35" viewBox="0 0 15 35" fill="none" xmlns="http://www.w3.org/2000/svg">
<path d="M13.4893 5.72017C12.8219 5.72197 12.2824 6.26443 12.2842 6.93178L12.3397 27.5297C12.3397 30.1949 10.1755 32.3591 7.50605 32.3598C4.83728 32.3591 2.673 30.1949 2.67299 27.5265L2.61744 6.32042C2.61748 4.65655 3.97007 3.30396 5.63815 3.30332C7.30638 3.30332 8.65882 4.65575 8.65885 6.32443L8.65878 23.8456C8.65878 23.8467 8.65894 23.8478 8.65894 23.8489C8.65709 24.5146 8.11728 25.0535 7.45113 25.0535C6.78387 25.0535 6.24313 24.5128 6.24313 23.8455L6.24225 15.3873C6.24217 14.72 5.70111 14.179 5.03377 14.1791C4.36642 14.1791 3.82544 14.7202 3.82552 15.3876L3.82637 23.8457C3.82637 25.8475 5.4491 27.4703 7.4511 27.4702C9.45304 27.4702 11.0758 25.8475 11.0758 23.8455C11.0758 23.8432 11.0755 23.841 11.0755 23.8387L11.0755 6.32439C11.0755 3.32098 8.64103 0.886556 5.63763 0.886555C2.6349 0.887637 0.200634 3.3219 0.200634 6.32355L0.256269 27.5297C0.256269 31.5296 3.50227 34.7756 7.50605 34.7766C11.5104 34.7755 14.7565 31.5295 14.7565 27.5265L14.701 6.92525C14.6991 6.2579 14.1566 5.71841 13.4893 5.72017Z" fill="black"/>
</svg>
