<svg width="13" height="12" viewBox="0 0 13 12" fill="none" xmlns="http://www.w3.org/2000/svg">
<path d="M10.9118 0.808594H2.07546C1.15158 0.808594 0.399902 1.50231 0.399902 2.35526V7.34697C0.399902 8.198 1.14831 8.89062 2.06951 8.89364V11.1588L5.5961 8.89364H10.9118C11.8357 8.89364 12.5874 8.19978 12.5874 7.34697V2.35526C12.5874 1.50231 11.8357 0.808594 10.9118 0.808594ZM11.8733 7.34697C11.8733 7.83627 11.442 8.23446 10.9118 8.23446H5.37205L2.78362 9.8971V8.23446H2.07546C1.54531 8.23446 1.11401 7.83627 1.11401 7.34697V2.35526C1.11401 1.86582 1.54531 1.46777 2.07546 1.46777H10.9118C11.442 1.46777 11.8733 1.86582 11.8733 2.35526V7.34697Z" fill="black"/>
<path d="M3.6618 3.13776H9.32545V3.79694H3.6618V3.13776Z" fill="black"/>
<path d="M3.6618 4.54401H9.32545V5.20319H3.6618V4.54401Z" fill="black"/>
<path d="M3.6618 5.95026H9.32545V6.60943H3.6618V5.95026Z" fill="black"/>
</svg>
