<svg width="39" height="29" viewBox="0 0 39 29" fill="none" xmlns="http://www.w3.org/2000/svg">
<path d="M38.2066 2.9938C38.2041 2.9938 38.2016 2.9938 38.1992 2.9938H35.6748V2.13037C35.6884 1.78862 35.4672 1.48149 35.1387 1.38603C33.3861 0.926957 31.5814 0.69677 29.7697 0.701236C26.791 0.701236 22.7327 1.37114 19.7317 4.42293C16.7531 1.34137 12.6649 0.701236 9.69371 0.701236C7.88196 0.69677 6.07728 0.926957 4.32473 1.38603C3.99615 1.48149 3.77499 1.78862 3.78858 2.13037V2.98636H1.27908C0.867844 2.98636 0.534424 3.31964 0.534424 3.7307V27.5049C0.534424 27.916 0.867844 28.2492 1.27908 28.2492C1.40698 28.2489 1.53264 28.2156 1.64396 28.1525C1.71843 28.1153 9.165 24.0437 19.5604 26.6638H19.6721H19.7391C19.7985 26.671 19.8585 26.671 19.9179 26.6638C30.3431 24.0214 37.7896 28.0855 37.8343 28.1525C38.0647 28.2854 38.3486 28.2854 38.579 28.1525C38.808 28.0204 38.9497 27.7767 38.9513 27.5123V3.73814C38.9513 3.32708 38.618 2.9938 38.2066 2.9938ZM2.02374 26.3214V4.48248H3.80347V23.1505C3.79882 23.5616 4.12842 23.8986 4.53966 23.9032C4.57987 23.9037 4.62008 23.9009 4.65983 23.8949C6.20034 23.6597 7.75565 23.5353 9.31394 23.5227C11.4725 23.4853 13.6221 23.8098 15.6733 24.4829C11.0411 23.923 6.34247 24.5558 2.02374 26.3214ZM9.31394 22.0415C7.9595 22.0445 6.60664 22.1315 5.263 22.302V2.7184C6.71285 2.39554 8.19341 2.23076 9.67882 2.22713C12.4638 2.22713 16.3063 2.86726 18.9721 5.8744L18.9945 24.4159C17.4456 23.4036 14.4223 22.0415 9.31394 22.0415ZM20.4838 5.8744C23.1497 2.89704 26.9921 2.22713 29.7771 2.22713C31.2624 2.2315 32.743 2.39619 34.1929 2.7184V22.302C32.8568 22.1299 31.5114 22.0404 30.1643 22.034C25.0858 22.034 22.055 23.3962 20.4838 24.4085V5.8744ZM37.4545 26.3214C33.1266 24.551 28.4172 23.918 23.7752 24.4829C25.8361 23.8074 27.9959 23.4828 30.1643 23.5227C31.7324 23.5314 33.2978 23.6533 34.8482 23.8874C35.2548 23.9491 35.6345 23.6696 35.6962 23.2632C35.7023 23.2235 35.7051 23.1833 35.7046 23.1431V4.48248H37.4843L37.4545 26.3214Z" fill="#E29000"/>
</svg>
