<svg width="12" height="12" viewBox="0 0 12 12" fill="none" xmlns="http://www.w3.org/2000/svg">
<path d="M11.2299 5.21332H2.62791L6.38599 1.3542C6.68633 1.04579 6.68633 0.539678 6.38599 0.231265C6.31475 0.157955 6.23012 0.0997934 6.13696 0.0601098C6.0438 0.0204262 5.94393 0 5.84307 0C5.74221 0 5.64234 0.0204262 5.54918 0.0601098C5.45602 0.0997934 5.3714 0.157955 5.30015 0.231265L0.225211 5.44265C0.15382 5.51581 0.097181 5.60271 0.0585364 5.69838C0.0198918 5.79404 0 5.8966 0 6.00017C0 6.10374 0.0198918 6.20629 0.0585364 6.30196C0.097181 6.39762 0.15382 6.48452 0.225211 6.55768L5.30015 11.7691C5.37145 11.8423 5.45609 11.9004 5.54925 11.94C5.6424 11.9796 5.74224 12 5.84307 12C5.9439 12 6.04374 11.9796 6.1369 11.94C6.23005 11.9004 6.31469 11.8423 6.38599 11.7691C6.45729 11.6959 6.51384 11.6089 6.55243 11.5133C6.59101 11.4176 6.61087 11.3151 6.61087 11.2116C6.61087 11.108 6.59101 11.0055 6.55243 10.9098C6.51384 10.8142 6.45729 10.7273 6.38599 10.654L2.62791 6.79492H11.2299C11.6535 6.79492 12 6.43906 12 6.00412C12 5.56918 11.6535 5.21332 11.2299 5.21332Z" fill="#393939"/>
</svg>
