<svg width="13" height="15" viewBox="0 0 13 15" fill="none" xmlns="http://www.w3.org/2000/svg">
<path d="M2.14844 13.3594C1.93269 13.3594 1.75781 13.1495 1.75781 12.8906V1.93359C1.75781 0.867393 2.48064 0 3.36914 0H10.3516C10.5673 0 10.7422 0.209883 10.7422 0.46875V11.25C10.7422 11.5089 10.5673 11.7188 10.3516 11.7188C10.1358 11.7188 9.96094 11.5089 9.96094 11.25V0.9375H3.36914C2.91143 0.9375 2.53906 1.38434 2.53906 1.93359V12.8906C2.53906 13.1495 2.36418 13.3594 2.14844 13.3594Z" fill="#0C0B0B"/>
<path d="M10.3516 15H3.51563C2.54636 15 1.75781 14.0537 1.75781 12.8906C1.75781 11.7275 2.54636 10.7812 3.51563 10.7812H10.3516C10.5673 10.7812 10.7422 10.9911 10.7422 11.25C10.7422 11.5089 10.5673 11.7188 10.3516 11.7188H3.51563C2.97715 11.7188 2.53906 12.2445 2.53906 12.8906C2.53906 13.5368 2.97715 14.0625 3.51563 14.0625H10.3516C10.5673 14.0625 10.7422 14.2724 10.7422 14.5312C10.7422 14.7901 10.5673 15 10.3516 15Z" fill="#0C0B0B"/>
<path d="M10.3516 13.3594H3.51563C3.29988 13.3594 3.125 13.1495 3.125 12.8906C3.125 12.6318 3.29988 12.4219 3.51563 12.4219H10.3516C10.5673 12.4219 10.7422 12.6318 10.7422 12.8906C10.7422 13.1495 10.5673 13.3594 10.3516 13.3594Z" fill="#0C0B0B"/>
<path d="M3.90625 11.7188C3.6905 11.7188 3.51562 11.5089 3.51562 11.25V0.46875C3.51562 0.209883 3.6905 0 3.90625 0C4.122 0 4.29688 0.209883 4.29688 0.46875V11.25C4.29688 11.5089 4.122 11.7188 3.90625 11.7188Z" fill="#0C0B0B"/>
</svg>
