<svg width="15" height="17" viewBox="0 0 15 17" fill="none" xmlns="http://www.w3.org/2000/svg">
<path d="M9.21387 17H0.74707C0.335119 17 0 16.6648 0 16.2529V3.7918C0 3.37988 0.335119 3.04473 0.74707 3.04473H2.17846C2.31598 3.04473 2.42748 3.15619 2.42748 3.29375C2.42748 3.43131 2.31598 3.54277 2.17846 3.54277H0.74707C0.609742 3.54277 0.498047 3.65447 0.498047 3.7918V16.2529C0.498047 16.3903 0.609742 16.502 0.74707 16.502H9.21387C9.3512 16.502 9.46289 16.3903 9.46289 16.2529V10.459H3.73535C3.3234 10.459 2.98828 10.1238 2.98828 9.71191V0.74707C2.98828 0.335152 3.3234 0 3.73535 0H11.2061C11.618 0 11.9531 0.335152 11.9531 0.74707V3.2373C11.9531 3.37487 11.8416 3.48633 11.7041 3.48633C11.5666 3.48633 11.4551 3.37487 11.4551 3.2373V0.74707C11.4551 0.609742 11.3434 0.498047 11.2061 0.498047H3.73535C3.59802 0.498047 3.48633 0.609742 3.48633 0.74707V9.71191C3.48633 9.84924 3.59802 9.96094 3.73535 9.96094H11.2061C11.3434 9.96094 11.4551 9.84924 11.4551 9.71191V4.2334C11.4551 4.09584 11.5666 3.98438 11.7041 3.98438H13.1982C13.3358 3.98438 13.4473 4.09584 13.4473 4.2334C13.4473 4.37096 13.3358 4.48242 13.1982 4.48242H11.9531V5.47852H13.1982C13.3358 5.47852 13.4473 5.58998 13.4473 5.72754C13.4473 5.8651 13.3358 5.97656 13.1982 5.97656H11.9531V6.97266H13.1982C13.3358 6.97266 13.4473 7.08412 13.4473 7.22168C13.4473 7.35924 13.3358 7.4707 13.1982 7.4707H11.9531V8.4668H13.1982C13.3358 8.4668 13.4473 8.57826 13.4473 8.71582C13.4473 8.85338 13.3358 8.96484 13.1982 8.96484H11.9531V9.71191C11.9531 9.79917 11.9381 9.88301 11.9105 9.96094H13.1982C13.3358 9.96094 13.4473 10.0724 13.4473 10.21C13.4473 10.3475 13.3358 10.459 13.1982 10.459H9.96094V11.4551H13.1982C13.3358 11.4551 13.4473 11.5665 13.4473 11.7041C13.4473 11.8417 13.3358 11.9531 13.1982 11.9531H9.96094V13.5137H14.1943C14.3317 13.5137 14.4434 13.402 14.4434 13.2646V2.29766C14.4434 2.16033 14.3317 2.04863 14.1943 2.04863H12.7002C12.5627 2.04863 12.4512 1.93717 12.4512 1.79961C12.4512 1.66205 12.5627 1.55059 12.7002 1.55059H14.1943C14.6063 1.55059 14.9414 1.88574 14.9414 2.29766V13.2646C14.9414 13.6766 14.6063 14.0117 14.1943 14.0117H9.96094V15.5059H12.7002C12.8375 15.5059 12.9492 15.3942 12.9492 15.2568V14.7588C12.9492 14.6212 13.0607 14.5098 13.1982 14.5098C13.3358 14.5098 13.4473 14.6212 13.4473 14.7588V15.2568C13.4473 15.6688 13.1121 16.0039 12.7002 16.0039H9.96094V16.2529C9.96094 16.6648 9.62582 17 9.21387 17ZM10.708 9.46289H4.2334C4.09587 9.46289 3.98438 9.35143 3.98438 9.21387V8.34879C3.98438 7.06918 4.83039 6.77639 5.44813 6.5626C5.95797 6.38616 6.24747 6.26729 6.2985 5.88383C5.74892 5.50837 5.38751 4.87691 5.38751 4.16254V3.1357C5.38751 1.98704 6.32204 1.05254 7.4707 1.05254C8.61937 1.05254 9.5539 1.98707 9.5539 3.1357V4.16254C9.5539 4.87691 9.19252 5.50837 8.64291 5.88383C8.69394 6.26732 8.98344 6.38616 9.49327 6.5626C10.111 6.77639 10.957 7.06918 10.957 8.34879V9.21387C10.957 9.35143 10.8455 9.46289 10.708 9.46289ZM4.48242 8.96484H10.459V8.34879C10.459 7.42385 9.93597 7.24283 9.33038 7.03325C8.88313 6.87849 8.34395 6.69182 8.18374 6.12C7.96118 6.20135 7.72105 6.24571 7.4707 6.24571C7.22035 6.24571 6.98023 6.20135 6.75767 6.12C6.59746 6.69182 6.05828 6.87849 5.61103 7.03325C5.00544 7.24286 4.48242 7.42385 4.48242 8.34879V8.96484ZM7.4707 1.55059C6.59666 1.55059 5.88555 2.26166 5.88555 3.1357V4.16254C5.88555 5.03658 6.59666 5.74766 7.4707 5.74766C8.34474 5.74766 9.05585 5.03658 9.05585 4.16254V3.1357C9.05585 2.26166 8.34474 1.55059 7.4707 1.55059Z" fill="#0C0B0B"/>
</svg>
