<svg width="19" height="19" viewBox="0 0 19 19" fill="none" xmlns="http://www.w3.org/2000/svg">
<path d="M1.97915 8.3125C0.88825 8.3125 0 9.20075 0 10.2917V16.625C0 17.7159 0.88825 18.6042 1.97915 18.6042H4.35415C4.79987 18.6042 5.20993 18.4537 5.54165 18.2036V8.3125H1.97915Z" fill="black"/>
<path d="M18.9997 11.2814C18.9997 10.8056 18.8113 10.3623 18.4843 10.0353C18.854 9.63078 19.0424 9.08846 18.9909 8.52402C18.8983 7.5178 17.9918 6.7293 16.9263 6.7293H12.0362C12.2784 5.99383 12.6663 4.64565 12.6663 3.56265C12.6663 1.84553 11.2073 0.395996 10.2913 0.395996C9.46879 0.395996 8.88135 0.859121 8.85604 0.878121C8.76263 0.953342 8.70801 1.06734 8.70801 1.18765V3.87218L6.42801 8.8114L6.33301 8.85968V17.3448C6.97741 17.6488 7.79282 17.8127 8.31216 17.8127H15.5789C16.441 17.8127 17.1955 17.2316 17.3728 16.4296C17.4638 16.0171 17.4108 15.6015 17.2295 15.2405C17.8145 14.946 18.208 14.3436 18.208 13.6564C18.208 13.3762 18.1439 13.1078 18.022 12.8647C18.607 12.5702 18.9997 11.9678 18.9997 11.2814Z" fill="black"/>
</svg>
