<svg width="15" height="16" viewBox="0 0 15 16" fill="none" xmlns="http://www.w3.org/2000/svg">
<path d="M7.00178 14.7823H2.91186C1.80036 14.7823 0.898518 13.8771 0.898518 12.7689V2.91186C0.898518 1.80036 1.80369 0.898517 2.91186 0.898517H7.06834C7.31793 0.898517 7.5176 0.698847 7.5176 0.449259C7.5176 0.199671 7.31793 0 7.06834 0H2.91186C1.30451 0 0 1.30784 0 2.91186V12.7689C0 14.3763 1.30784 15.6808 2.91186 15.6808H7.00178C7.25137 15.6808 7.45104 15.4811 7.45104 15.2315C7.45104 14.9819 7.24804 14.7823 7.00178 14.7823Z" fill="#1C1C1C"/>
<path d="M14.4027 7.52395L11.5474 4.66866C11.3711 4.49228 11.0882 4.49228 10.9118 4.66866C10.7355 4.84503 10.7355 5.1279 10.9118 5.30428L13.0017 7.39416H3.88676C3.63717 7.39416 3.4375 7.59383 3.4375 7.84342C3.4375 8.09301 3.63717 8.29268 3.88676 8.29268H13.0017L10.9118 10.3826C10.7355 10.5589 10.7355 10.8418 10.9118 11.0182C10.9984 11.1047 11.1148 11.1513 11.228 11.1513C11.3411 11.1513 11.4576 11.108 11.5441 11.0182L14.3994 8.16289C14.5791 7.98319 14.5791 7.697 14.4027 7.52395Z" fill="#1C1C1C"/>
</svg>
