<svg width="18" height="18" viewBox="0 0 18 18" fill="none" xmlns="http://www.w3.org/2000/svg">
<path d="M17.179 2.10183C17.1687 2.09216 15.1341 0.151767 15.1341 0.151767C15.0563 0.0771352 14.9759 0 14.8257 0H6.63445C6.39519 0 6.20053 0.194631 6.20053 0.433885V1.76626L3.31354 2.26114C3.08213 2.30174 2.92651 2.5232 2.9666 2.75437L3.11312 3.60868C2.17475 3.92446 1.21133 4.24998 0.281281 4.58406C0.061513 4.66441 -0.0538177 4.90878 0.0246031 5.12986L1.87466 10.2728C1.91188 10.3762 2.00941 10.4407 2.11344 10.4407C2.14193 10.4407 2.17096 10.4359 2.19931 10.4256C2.33118 10.3782 2.39962 10.2329 2.35219 10.101L0.5295 5.03415C1.40573 4.72044 2.31315 4.41339 3.19997 4.11489L4.07183 9.19786L5.07506 15.0517C5.1113 15.2584 5.29294 15.4054 5.49795 15.4054C5.52116 15.4054 5.54471 15.4035 5.56832 15.3996L8.28551 14.9333L10.4088 14.5694L7.2154 15.7172L4.69717 16.6226L2.74145 11.1829C2.69406 11.051 2.54875 10.9826 2.41684 11.03C2.28497 11.0774 2.21653 11.2227 2.26393 11.3546L4.24738 16.8716C4.31082 17.0451 4.47517 17.1529 4.64889 17.1529C4.6969 17.1529 4.74565 17.1447 4.79315 17.1273L7.38702 16.1947L13.2768 14.0778L14.402 13.8849H16.8876C17.1269 13.8849 17.3216 13.6898 17.3216 13.45V2.38774C17.3216 2.23587 17.2392 2.1584 17.179 2.10183ZM16.5068 2.16192H15.2371L15.2056 2.16205C15.1448 2.16246 15.0025 2.16351 14.9664 2.12765C14.9581 2.11936 14.9483 2.09168 14.9483 2.04029L14.9454 0.673005L16.5068 2.16192ZM16.8141 13.3774H6.708V8.43237C6.708 8.29224 6.59439 8.17863 6.45426 8.17863C6.31413 8.17863 6.20053 8.29224 6.20053 8.43237V13.45C6.20053 13.6897 6.39519 13.8848 6.63445 13.8848H11.3983L8.19972 14.4331L5.56149 14.8859L4.57199 9.11207L3.48029 2.7474L6.20049 2.2811V7.25504C6.20049 7.39517 6.3141 7.50877 6.45423 7.50877C6.59436 7.50877 6.70796 7.39517 6.70796 7.25504V0.507435H14.4376L14.4409 2.04087C14.4409 2.22674 14.4974 2.37708 14.6089 2.48778C14.7802 2.65785 15.0223 2.66969 15.1726 2.66969C15.1855 2.66969 15.1978 2.66959 15.2092 2.66952L16.8141 2.66942V13.3774Z" fill="black"/>
</svg>
