<svg width="30" height="29" viewBox="0 0 30 29" fill="none" xmlns="http://www.w3.org/2000/svg">
<path d="M29.1129 25.2099H25.9668C28.0551 22.4397 29.2052 18.9757 29.2052 15.4561C29.2052 6.93364 22.7686 0 14.8562 0C6.94416 0 0.507266 6.93394 0.507266 15.4561C0.507266 18.9763 1.65681 22.4403 3.74481 25.2099H0.601382C0.269419 25.2099 0 25.4794 0 25.8113V28.1309C0 28.4628 0.269419 28.7322 0.601382 28.7322H9.18641C9.51838 28.7322 9.7878 28.4628 9.7878 28.1309V25.547C9.7878 25.4039 9.73698 25.2659 9.64437 25.1573L9.61099 25.1179C9.57731 25.0779 9.53822 25.0428 9.49522 25.0133C6.54063 22.9656 4.70491 19.3038 4.70491 15.4558C4.70491 9.24776 9.25888 4.19735 14.8562 4.19735C20.4533 4.19735 25.0073 9.24806 25.0073 15.4558C25.0073 19.32 23.1601 22.9896 20.1875 25.0331C20.0242 25.1453 19.9268 25.3305 19.9268 25.5284V28.1303C19.9268 28.4622 20.1962 28.7316 20.5282 28.7316H29.1129C29.4449 28.7316 29.7143 28.4622 29.7143 28.1303V25.8107C29.7143 25.4791 29.4455 25.2099 29.1129 25.2099Z" fill="black"/>
</svg>
