<svg width="29" height="27" viewBox="0 0 29 27" fill="none" xmlns="http://www.w3.org/2000/svg">
<path d="M21.88 21.5783C17.861 18.4357 20.6974 5.50994 20.6974 5.50994C20.6974 5.50994 25.0968 5.50994 25.6095 5.50994C26.1222 5.50994 28.132 5.1876 28.132 2.78087C28.132 -0.179739 25.6759 0.00217897 25.6759 0.00217897C25.6759 0.00217897 12.2128 0.00217897 7.59027 0.00217897C4.62155 0.00217897 1.94209 3.40119 0.404053 5.83228C-0.414729 7.13066 0.0483355 7.4945 1.45437 6.88259C6.3833 4.72423 7.77249 5.50152 7.77249 5.50152C8.11979 7.16374 8.23555 14.6645 6.97055 17.6248C5.6887 20.4119 3.32376 23.9429 6.79675 26.0186C9.50928 27.5566 12.3538 24.3976 12.0727 19.0221C11.9404 16.1773 11.717 5.50964 11.717 5.50964H16.249C16.108 7.17186 15.3394 15.6565 16.1416 20.6846C16.9766 29.0784 26.0981 27.4493 27.8015 22.6947C28.2231 21.3798 28.1242 20.3707 27.8096 19.6096C27.2305 18.1958 26.2629 18.1215 26.3708 18.7827C26.4373 19.2043 26.3958 19.6178 26.3293 19.9903C26.1306 21.1399 23.7822 22.9422 21.88 21.5783Z" fill="black"/>
</svg>
