<svg width="31" height="39" viewBox="0 0 31 39" fill="none" xmlns="http://www.w3.org/2000/svg">
<path d="M30.1165 28.2027C26.7192 26.223 24.2364 22.9782 23.2077 19.1724L21.5325 12.8845C20.2955 8.21813 16.1636 4.91359 11.3566 4.7462L10.7296 2.39767C10.269 0.672288 8.50259 -0.351321 6.78396 0.111056C5.06596 0.573433 4.04636 2.34651 4.50661 4.07158L5.13265 6.41884C1.06116 8.98339 -0.869192 13.9132 0.372829 18.5746L2.04805 24.8624C2.38404 26.1198 2.55423 27.4163 2.55423 28.7181C2.5536 31.3259 1.87156 33.8876 0.576372 36.148C0.209869 36.7655 0.258946 37.5459 0.700008 38.1119C1.03222 38.5506 1.54941 38.8083 2.09807 38.8086C2.25285 38.8083 2.407 38.7881 2.55612 38.7476L11.8194 36.2567C12.5307 37.9167 14.1556 38.9943 15.9557 39C17.2446 39.0019 18.4724 38.4495 19.3284 37.4821C20.1845 36.515 20.5868 35.2258 20.4333 33.9413L29.6969 31.4504C30.472 31.2413 31.0078 30.5326 30.9999 29.7272C31.0015 29.0962 30.6636 28.5131 30.1165 28.2027ZM5.94399 2.26439C6.28942 1.66368 6.92805 1.29384 7.61921 1.29416C8.49504 1.29163 9.26234 1.88224 9.48759 2.73214L10.0318 4.77399C9.97081 4.77936 9.91072 4.79136 9.84969 4.79799C9.64678 4.81852 9.44544 4.84474 9.24535 4.87632C9.13902 4.89306 9.03269 4.91043 8.92698 4.93064C8.70394 4.97359 8.4834 5.02255 8.26539 5.07687C8.21694 5.08919 8.16818 5.09614 8.12036 5.10909C8.07254 5.12204 8.04234 5.13498 8.00302 5.14604C7.757 5.21394 7.51445 5.29069 7.27567 5.37565C7.21118 5.39807 7.15078 5.42144 7.08818 5.44481C6.83964 5.53798 6.59489 5.63968 6.35422 5.75022C6.33566 5.75844 6.31584 5.76507 6.29697 5.77391L5.75335 3.73648C5.61807 3.24 5.68665 2.70972 5.94399 2.26439ZM19.173 34.2821C19.2627 35.8145 18.2667 37.1991 16.7893 37.5958C15.312 37.9919 13.7607 37.2923 13.0743 35.9206L19.173 34.2821ZM29.3574 30.2025L2.21982 37.4988C2.03421 37.5513 1.83538 37.4827 1.72055 37.3267C1.59975 37.1745 1.58685 36.9626 1.68847 36.7971C3.09848 34.3396 3.84124 31.554 3.84281 28.7181C3.84313 27.3029 3.65815 25.8939 3.29196 24.5273L1.61674 18.2401C0.47696 13.9707 2.35321 9.46693 6.18183 7.28358L6.19315 7.27853C6.73426 6.98039 7.30273 6.7353 7.89039 6.54643C8.076 6.48485 8.25564 6.41126 8.44565 6.36136C9.09655 6.18828 9.76349 6.08311 10.4361 6.0471C10.5783 6.03921 10.7208 6.03068 10.863 6.02942H10.9624C15.3337 6.03037 19.1586 8.98118 20.2851 13.2215L21.9603 19.51C23.08 23.6465 25.7795 27.1727 29.4729 29.3236C29.621 29.4031 29.7129 29.5585 29.7113 29.7272C29.7186 29.9489 29.5717 30.1463 29.3574 30.2019V30.2025Z" fill="#0C0B0B"/>
</svg>
