<svg width="28" height="32" viewBox="0 0 28 32" fill="none" xmlns="http://www.w3.org/2000/svg">
<path d="M13.8312 16.7189C13.8652 16.7189 13.8991 16.7189 13.9399 16.7189C13.9535 16.7189 13.9671 16.7189 13.9806 16.7189C14.001 16.7189 14.0282 16.7189 14.0486 16.7189C16.0386 16.6868 17.6483 16.025 18.837 14.7591C21.4519 11.9705 21.0172 7.19002 20.9697 6.73382C20.7999 3.30908 19.0883 1.6706 17.6755 0.905982C16.6227 0.334121 15.3934 0.0257016 14.0214 0H13.9738C13.9671 0 13.9535 0 13.9467 0H13.9059C13.152 0 11.6713 0.115657 10.2518 0.88028C8.82548 1.6449 7.08671 3.28338 6.91691 6.73382C6.86937 7.19002 6.43468 11.9705 9.04962 14.7591C10.2314 16.025 11.8411 16.6868 13.8312 16.7189ZM8.73039 6.89446C8.73039 6.87518 8.73718 6.8559 8.73718 6.84305C8.96132 2.23604 12.4185 1.74128 13.8991 1.74128H13.9263C13.9399 1.74128 13.9603 1.74128 13.9806 1.74128C15.8145 1.77984 18.932 2.48663 19.1426 6.84305C19.1426 6.86233 19.1426 6.8816 19.1494 6.89446C19.1562 6.93943 19.6316 11.3087 17.4718 13.609C16.616 14.5214 15.4749 14.9712 13.9738 14.984C13.9603 14.984 13.9535 14.984 13.9399 14.984C13.9263 14.984 13.9195 14.984 13.9059 14.984C12.4117 14.9712 11.2638 14.5214 10.4148 13.609C8.26174 11.3216 8.7236 6.93301 8.73039 6.89446Z" fill="black"/>
<path d="M27.8968 24.6473C27.8968 24.6409 27.8968 24.6345 27.8968 24.6281C27.8968 24.5767 27.89 24.5253 27.89 24.4674C27.8492 23.1952 27.7609 20.2202 24.8132 19.2693C24.7928 19.2629 24.7656 19.2564 24.7453 19.25C21.6821 18.5111 19.135 16.8405 19.1079 16.8212C18.6936 16.5449 18.123 16.6413 17.831 17.0332C17.5389 17.4252 17.6408 17.9649 18.0551 18.2412C18.1706 18.3183 20.8738 20.0982 24.2562 20.9206C25.8388 21.4539 26.0154 23.0538 26.0629 24.5188C26.0629 24.5767 26.0629 24.6281 26.0697 24.6795C26.0765 25.2578 26.0358 26.1509 25.9271 26.6649C24.8268 27.2561 20.5138 29.2993 13.9527 29.2993C7.41876 29.2993 3.07864 27.2496 1.97154 26.6585C1.86287 26.1445 1.81532 25.2513 1.82891 24.673C1.82891 24.6216 1.8357 24.5702 1.8357 24.5124C1.88325 23.0474 2.05984 21.4475 3.64238 20.9142C7.02482 20.0917 9.72806 18.3055 9.84352 18.2348C10.2578 17.9585 10.3597 17.4188 10.0677 17.0268C9.7756 16.6349 9.20507 16.5385 8.79076 16.8148C8.76359 16.8341 6.23015 18.5047 3.15336 19.2436C3.12619 19.25 3.10581 19.2564 3.08544 19.2629C0.13769 20.2202 0.049393 23.1952 0.00864075 24.461C0.00864075 24.5188 0.0086406 24.5702 0.00184855 24.6216C0.00184855 24.6281 0.00184855 24.6345 0.00184855 24.6409C-0.00494349 24.975 -0.0117354 26.6906 0.348243 27.5516C0.416163 27.7187 0.53842 27.86 0.701429 27.9564C0.905191 28.0849 5.78867 31.0278 13.9595 31.0278C22.1303 31.0278 27.0138 28.0785 27.2176 27.9564C27.3738 27.86 27.5028 27.7187 27.5708 27.5516C27.9104 26.6971 27.9036 24.9815 27.8968 24.6473Z" fill="black"/>
</svg>
