<svg width="20" height="18" viewBox="0 0 20 18" fill="none" xmlns="http://www.w3.org/2000/svg">
<path d="M9.62706 3.02462C10.4623 3.02462 11.1394 2.34754 11.1394 1.51231C11.1394 0.677085 10.4623 0 9.62706 0C8.79183 0 8.11475 0.677085 8.11475 1.51231C8.11475 2.34754 8.79183 3.02462 9.62706 3.02462Z" fill="#0C0B0B"/>
<path d="M11.2556 4.7698C11.0857 3.91828 10.2811 3.3337 9.40824 3.45036C8.68615 3.54616 8.13521 4.09327 7.99939 4.7698C8.45496 4.4326 9.01867 4.23249 9.62751 4.23249C10.2364 4.23249 10.7992 4.43302 11.2556 4.7698Z" fill="#0C0B0B"/>
<path d="M15.0257 11.8911C14.6792 11.5858 14.1499 11.6198 13.8455 11.9668L12.6534 13.3208C12.3481 13.6673 12.3822 14.1966 12.7292 14.5014C12.888 14.6411 13.0851 14.71 13.2814 14.71C13.5134 14.71 13.7442 14.6134 13.9098 14.4256L15.1011 13.0713C15.4068 12.7251 15.3727 12.1963 15.0257 11.8911Z" fill="#0C0B0B"/>
<path d="M13.9094 4.0187C13.6037 3.67213 13.0753 3.63807 12.7291 3.94334C12.3826 4.24862 12.3481 4.77742 12.6534 5.12399L13.8455 6.47834C14.0111 6.6661 14.2419 6.76232 14.4744 6.76232C14.6706 6.76232 14.8673 6.69378 15.0266 6.55413C15.3731 6.24885 15.4076 5.72006 15.1019 5.37348L13.9094 4.0187Z" fill="#0C0B0B"/>
<path d="M9.6347 9.38574C9.63215 9.38574 9.6215 9.38574 9.61895 9.38574C9.08632 9.38574 8.57838 9.62715 8.22329 10.0252C7.86821 10.4229 7.69918 10.9594 7.75921 11.489L8.61883 17.0444C8.67758 17.5676 9.1059 17.9998 9.62704 17.9998C10.149 17.9998 10.5761 17.571 10.6361 17.0469L11.4949 11.4882C11.5553 10.9589 11.3859 10.4221 11.0308 10.0244C10.6748 9.62758 10.1678 9.38574 9.6347 9.38574Z" fill="#0C0B0B"/>
<path d="M9.62664 8.91367C10.6448 8.91367 11.4702 8.08829 11.4702 7.07012C11.4702 6.05195 10.6448 5.22656 9.62664 5.22656C8.60847 5.22656 7.78308 6.05195 7.78308 7.07012C7.78308 8.08829 8.60847 8.91367 9.62664 8.91367Z" fill="#0C0B0B"/>
<path d="M17.5496 6.82812C17.5475 6.82812 17.5381 6.82812 17.5356 6.82812C17.0502 6.82812 16.5878 7.04824 16.2651 7.41014C15.9415 7.77204 15.7878 8.26082 15.8423 8.74321L16.6245 13.8004C16.6781 14.2773 17.0681 14.6703 17.5424 14.6703C18.0171 14.6703 18.4067 14.2798 18.4608 13.8034L19.2425 8.74236C19.297 8.26039 19.1433 7.77204 18.8201 7.41014C18.497 7.04824 18.0346 6.82812 17.5496 6.82812Z" fill="#0C0B0B"/>
<path d="M17.5424 6.39822C18.4693 6.39822 19.2207 5.6468 19.2207 4.71986C19.2207 3.79293 18.4693 3.0415 17.5424 3.0415C16.6154 3.0415 15.864 3.79293 15.864 4.71986C15.864 5.6468 16.6154 6.39822 17.5424 6.39822Z" fill="#0C0B0B"/>
<path d="M4.22803 11.8915C4.57503 11.5863 5.10383 11.6203 5.40868 11.9673L6.60039 13.3213C6.90566 13.6678 6.8716 14.1971 6.52503 14.5019C6.36622 14.6416 6.16909 14.7105 5.97281 14.7105C5.74077 14.7105 5.51001 14.6139 5.34439 14.4261L4.1531 13.0718C3.8474 12.7256 3.88061 12.1968 4.22803 11.8915Z" fill="#0C0B0B"/>
<path d="M5.34349 4.01919C5.64919 3.67262 6.17756 3.63856 6.52413 3.94383C6.8707 4.24911 6.90476 4.7779 6.59949 5.12447L5.40778 6.47883C5.24216 6.66659 5.01139 6.76281 4.77893 6.76281C4.58265 6.76281 4.38595 6.69426 4.22671 6.55461C3.88014 6.24934 3.84608 5.72054 4.15135 5.37397L5.34349 4.01919Z" fill="#0C0B0B"/>
<path d="M1.70362 6.82812C1.70575 6.82812 1.71554 6.82812 1.7181 6.82812C2.20304 6.82812 2.66542 7.04824 2.98858 7.41014C3.31216 7.77204 3.46586 8.26082 3.41136 8.74321L2.62881 13.8004C2.57516 14.2773 2.18516 14.6703 1.71086 14.6703C1.23613 14.6703 0.846561 14.2798 0.792489 13.8034L0.0107874 8.74236C-0.0437103 8.26039 0.10999 7.77204 0.433145 7.41014C0.756299 7.04824 1.21825 6.82812 1.70362 6.82812Z" fill="#0C0B0B"/>
<path d="M1.71132 6.39822C2.63825 6.39822 3.38968 5.6468 3.38968 4.71986C3.38968 3.79293 2.63825 3.0415 1.71132 3.0415C0.784386 3.0415 0.032959 3.79293 0.032959 4.71986C0.032959 5.6468 0.784386 6.39822 1.71132 6.39822Z" fill="#0C0B0B"/>
</svg>
