<svg width="42" height="42" viewBox="0 0 42 42" fill="none" xmlns="http://www.w3.org/2000/svg">
<g filter="url(#filter0_d)">
<circle cx="20" cy="19" r="19" fill="#EE6217"/>
</g>
<path d="M17.971 14.905C16.5526 14.905 15.2594 15.5438 14.3416 16.5476C13.403 17.5742 12.8398 18.9659 12.8398 20.5172C12.8398 22.0685 13.4239 23.483 14.3416 24.4868C15.2803 25.5134 16.5526 26.1294 17.971 26.1294C19.3893 26.1294 20.6825 25.4906 21.6003 24.4868C22.5389 23.4602 23.1021 22.0685 23.1021 20.5172C23.1021 18.9659 22.5181 17.5514 21.6003 16.5476C20.6825 15.5438 19.3893 14.905 17.971 14.905ZM20.8077 23.6427C20.0777 24.4183 19.0765 24.9202 17.971 24.9202C16.8655 24.9202 15.8643 24.4183 15.1343 23.6427C14.4042 22.8442 13.9662 21.7491 13.9662 20.54C13.9662 19.3309 14.4251 18.2358 15.1343 17.4373C15.8643 16.6389 16.8655 16.1598 17.971 16.1598C19.0765 16.1598 20.0777 16.6617 20.8077 17.4373C21.5377 18.2358 21.9758 19.3309 21.9758 20.54C21.9966 21.7491 21.5377 22.8442 20.8077 23.6427Z" fill="white"/>
<path d="M25.3971 17.1178C25.9615 17.1178 26.4191 16.6173 26.4191 16C26.4191 15.3826 25.9615 14.8821 25.3971 14.8821C24.8326 14.8821 24.375 15.3826 24.375 16C24.375 16.6173 24.8326 17.1178 25.3971 17.1178Z" fill="white"/>
<line x1="28.3574" y1="16" x2="28.3574" y2="25" stroke="white"/>
<line x1="24" y1="20.6428" x2="33" y2="20.6428" stroke="white"/>
<path fill-rule="evenodd" clip-rule="evenodd" d="M26.4816 12.1445C27.1699 12.1445 27.7748 12.4411 28.2128 12.943C28.4921 13.2346 28.7019 13.5938 28.8233 14H27.624C27.5764 13.9242 27.5222 13.853 27.4619 13.7871C27.2116 13.5133 26.8779 13.3536 26.5024 13.3536H22.4768C22.1639 13.3536 21.9136 13.0798 21.9136 12.7376V12.076C21.9136 11.8251 21.8302 11.597 21.6842 11.4373C21.5382 11.2776 21.3296 11.1863 21.1002 11.1863H14.8636C14.6341 11.1863 14.4255 11.2776 14.2795 11.4373C14.1335 11.597 14.0501 11.8251 14.0501 12.076V12.7376C14.0501 13.0798 13.7998 13.3536 13.4869 13.3536H9.46127C9.08582 13.3536 8.75209 13.5133 8.50179 13.7871C8.25149 14.0608 8.10549 14.4259 8.10549 14.8365V26.1977C8.10549 26.6084 8.25149 26.9734 8.50179 27.2472C8.75209 27.5209 9.08582 27.6806 9.46127 27.6806H26.4816C26.857 27.6806 27.1908 27.5209 27.4411 27.2472C27.5103 27.1714 27.5716 27.0887 27.6239 27H28.8248C28.7003 27.4174 28.4847 27.7939 28.2128 28.0913C27.7748 28.5932 27.1699 28.8897 26.4816 28.8897H9.46127C8.79381 28.8897 8.16806 28.5703 7.73004 28.0913C7.27116 27.6122 7 26.9506 7 26.1977V14.8365C7 14.1065 7.29202 13.4221 7.73004 12.943C8.16806 12.4411 8.77295 12.1445 9.46127 12.1445H12.9029V12.0989C12.9029 11.5285 13.1115 11.0038 13.4661 10.616C13.8206 10.2281 14.3004 10 14.8427 10H21.1002C21.6216 10 22.1014 10.2281 22.4559 10.616C22.8105 10.981 23.0191 11.5285 23.0191 12.0989V12.1445H26.4816Z" fill="white"/>
<defs>
<filter id="filter0_d" x="0" y="0" width="42" height="42" filterUnits="userSpaceOnUse" color-interpolation-filters="sRGB">
<feFlood flood-opacity="0" result="BackgroundImageFix"/>
<feColorMatrix in="SourceAlpha" type="matrix" values="0 0 0 0 0 0 0 0 0 0 0 0 0 0 0 0 0 0 127 0"/>
<feOffset dx="1" dy="2"/>
<feGaussianBlur stdDeviation="1"/>
<feColorMatrix type="matrix" values="0 0 0 0 0 0 0 0 0 0 0 0 0 0 0 0 0 0 0.25 0"/>
<feBlend mode="normal" in2="BackgroundImageFix" result="effect1_dropShadow"/>
<feBlend mode="normal" in="SourceGraphic" in2="effect1_dropShadow" result="shape"/>
</filter>
</defs>
</svg>
