<svg width="28" height="26" viewBox="0 0 28 26" fill="none" xmlns="http://www.w3.org/2000/svg">
<path d="M27.8825 9.76293C27.7486 9.36092 27.5025 9.0026 27.1712 8.72764C26.84 8.45267 26.4366 8.2718 26.0057 8.20503L19.2443 7.14146L16.1099 1.24603C15.9103 0.870715 15.6077 0.555885 15.2353 0.336083C14.863 0.116281 14.4353 0 13.9992 0C13.563 0 13.1353 0.116281 12.763 0.336083C12.3906 0.555885 12.088 0.870715 11.8884 1.24603L8.754 7.14146L1.99276 8.20503C1.5623 8.27285 1.15946 8.45411 0.82843 8.72895C0.497401 9.00379 0.250981 9.36157 0.116207 9.76304C-0.0185667 10.1645 -0.0364868 10.5942 0.0644132 11.0048C0.165313 11.4155 0.381134 11.7914 0.688196 12.0911L5.51236 16.7983L4.4682 23.351C4.40119 23.7683 4.45441 24.1955 4.62199 24.5855C4.78957 24.9755 5.06502 25.3132 5.41805 25.5614C5.77107 25.8097 6.188 25.9589 6.62297 25.9927C7.05794 26.0264 7.49411 25.9434 7.88349 25.7528L13.9992 22.7665L20.115 25.7528C20.5044 25.943 20.9405 26.0257 21.3753 25.9918C21.8101 25.9579 22.2268 25.8086 22.5797 25.5604C22.9326 25.3123 23.208 24.9748 23.3757 24.585C23.5434 24.1952 23.5969 23.7682 23.5303 23.351L22.4861 16.7983L27.3103 12.0911C27.6183 11.792 27.8348 11.4161 27.9358 11.0052C28.0368 10.5943 28.0183 10.1643 27.8825 9.76293ZM25.9849 10.8188L20.4975 16.173L21.6854 23.6266C21.7001 23.7158 21.689 23.8073 21.6533 23.8908C21.6176 23.9744 21.5588 24.0467 21.4832 24.0998C21.4077 24.153 21.3184 24.1848 21.2253 24.1919C21.1322 24.1989 21.0389 24.1808 20.9557 24.1397L13.9992 20.7428L7.04256 24.1398C6.9594 24.1809 6.8661 24.199 6.77299 24.192C6.67989 24.1849 6.59061 24.1531 6.51505 24.1C6.4395 24.0468 6.38061 23.9745 6.34493 23.8909C6.30924 23.8074 6.29814 23.7159 6.31287 23.6267L7.50083 16.173L2.01347 10.8187C1.94794 10.7546 1.9019 10.6743 1.88038 10.5866C1.85887 10.4989 1.86271 10.4071 1.8915 10.3214C1.92028 10.2356 1.97289 10.1592 2.04357 10.1005C2.11425 10.0417 2.20026 10.0029 2.29219 9.98838L9.98291 8.77863L13.5482 2.0728C13.5908 1.99259 13.6555 1.9253 13.735 1.87831C13.8146 1.83133 13.906 1.80648 13.9992 1.80648C14.0924 1.80648 14.1837 1.83133 14.2633 1.87831C14.3429 1.9253 14.4075 1.99259 14.4501 2.0728L18.0154 8.77863L25.7061 9.98838C25.7981 10.0029 25.8841 10.0417 25.9547 10.1005C26.0254 10.1592 26.078 10.2356 26.1068 10.3214C26.1356 10.4071 26.1395 10.4989 26.1179 10.5866C26.0964 10.6743 26.0504 10.7546 25.9848 10.8187L25.9849 10.8188Z" fill="black"/>
</svg>
